<?xml version="1.0" encoding="utf-8"?>
<!-- Generator: Adobe Illustrator 25.4.1, SVG Export Plug-In . SVG Version: 6.00 Build 0)  -->
<svg version="1.1" id="Layer_1" xmlns="http://www.w3.org/2000/svg" xmlns:xlink="http://www.w3.org/1999/xlink" x="0px" y="0px"
	 viewBox="0 0 239.1 67.5" style="enable-background:new 0 0 239.1 67.5;" xml:space="preserve">
<style type="text/css">
	.st0{fill:#231F20;}
	.st1{fill:#36B7BE;}
	.st2{fill:#FF314F;}
	.st3{fill:#DADA0A;}
	.st4{fill:#FFFFFF;}
	.st5{fill:none;stroke:#FFFFFF;stroke-width:1.4173;stroke-miterlimit:10;}
	.st6{fill:none;stroke:#36B7BE;stroke-width:2.8347;stroke-miterlimit:10;}
	.st7{opacity:0.5;}
	.st8{opacity:0.4;}
	.st9{opacity:0.15;fill:none;stroke:#231F20;stroke-miterlimit:10;}
	.st10{clip-path:url(#SVGID_00000062888042012023176670000010552390548074626221_);}
	.st11{clip-path:url(#SVGID_00000021082980404789436190000003920946582997913254_);}
</style>
<g>
	<rect x="8.8" y="10" class="st3" width="230.3" height="57.5"/>
	<rect class="st0" width="230.3" height="57.5"/>
	<g>
		<path class="st4" d="M45.3,16.8v13.5l4.8-4.7h4.7l-6,5.7l6.5,7.2h-4.8l-4.8-5.5l-0.4,0.4v5.2h-3.6V16.8H45.3z"/>
		<path class="st4" d="M60.4,25.6v7.3c0,0.7,0.1,1.6,0.8,2.3c0.4,0.4,1.2,0.7,1.8,0.7c0.7,0,1.4-0.3,1.8-0.7
			c0.7-0.7,0.8-1.6,0.8-2.3v-7.3h3.6v7.9c0,1.2-0.1,2.7-1.6,4c-1.2,1-3.1,1.5-4.7,1.5c-1.6,0-3.5-0.4-4.7-1.5
			c-1.4-1.2-1.6-2.8-1.6-4v-7.9H60.4z"/>
		<path class="st4" d="M76.2,45.3h-3.6V25.6h3.6v1.7c0.6-0.8,1.8-2.1,4.2-2.1c1.1,0,2.9,0.3,4.4,1.7c1,1,1.9,2.6,1.9,5.1
			c0,2.9-1.3,4.5-2,5.2c-1,0.9-2.5,1.7-4.4,1.7c-0.9,0-2.7-0.1-4.1-2.1V45.3z M77.1,29.2c-0.8,0.7-1.2,1.6-1.2,2.8s0.5,2.2,1.2,2.8
			c0.5,0.4,1.2,0.9,2.4,0.9c1.2,0,2-0.5,2.4-0.9C82.7,34,83,32.9,83,32c0-1-0.4-2-1.1-2.7c-0.7-0.6-1.6-0.9-2.5-0.9
			C78.5,28.4,77.8,28.6,77.1,29.2z"/>
		<path class="st4" d="M100.1,16.8v13.5l4.8-4.7h4.7l-6,5.7l6.5,7.2h-4.8l-4.8-5.5l-0.4,0.4v5.2h-3.6V16.8H100.1z"/>
		<path class="st4" d="M118.8,28.6c-0.9-0.8-1.7-0.9-2.1-0.9c-0.9,0-1.4,0.4-1.4,1c0,0.3,0.1,0.8,1.2,1.2l0.9,0.3
			c1,0.3,2.5,0.8,3.3,1.8c0.4,0.5,0.7,1.3,0.7,2.1c0,1.2-0.4,2.3-1.4,3.3c-1,1-2.3,1.4-3.9,1.4c-2.7,0-4.2-1.3-5-2.1l1.9-2.2
			c0.7,0.8,1.8,1.5,2.9,1.5c1,0,1.8-0.5,1.8-1.4c0-0.8-0.7-1.1-1.1-1.3l-0.8-0.3c-0.9-0.3-2-0.7-2.8-1.5c-0.6-0.6-1-1.4-1-2.5
			c0-1.2,0.6-2.3,1.3-2.9c1-0.8,2.3-0.9,3.4-0.9c1,0,2.5,0.1,4.1,1.4L118.8,28.6z"/>
		<path class="st4" d="M125.5,17.9c1.2,0,2.2,1,2.2,2.2c0,1.2-1,2.2-2.2,2.2c-1.2,0-2.2-1-2.2-2.2C123.3,18.9,124.3,17.9,125.5,17.9
			z M127.3,25.6v12.9h-3.6V25.6H127.3z"/>
		<path class="st4" d="M140.6,25.6h3.6v12.9H143c-0.4,0.3-0.9,0.6-1.2,1.1c-0.3,0.3-0.6,0.7-0.6,1.3c0,0.4,0.2,0.7,0.4,0.9
			c0.2,0.2,0.6,0.3,0.9,0.3c0.1,0,0.7,0,1.4-0.4l-0.4,2c-0.6,0.4-1.1,0.5-1.8,0.5c-0.5,0-1.4-0.1-2.1-0.7c-0.4-0.4-0.7-0.9-0.7-1.7
			c0-0.7,0.2-1.4,0.8-2c0.4-0.4,1-0.9,1.4-1.2h-0.5v-1.7c-1.3,1.9-3,2.1-4,2.1c-1.7,0-3.3-0.5-4.6-1.9c-1-1-1.9-2.7-1.9-5
			c0-2.3,0.9-4,2-5.1c1-1,2.4-1.8,4.4-1.8c1,0,2.9,0.2,4.1,2.1V25.6z M134.8,29.4c-0.7,0.7-1,1.6-1,2.6c0,1.1,0.4,2,1,2.6
			c0.6,0.6,1.5,1,2.6,1c1.2,0,2.1-0.5,2.6-1c0.6-0.6,1-1.5,1-2.6c0-1.1-0.4-2-1-2.6c-0.7-0.7-1.6-1-2.5-1
			C136.3,28.4,135.4,28.8,134.8,29.4z"/>
		<path class="st4" d="M152.8,35.4h6.8v3.1h-13.2l7.3-9.8h-6.2v-3.1h12.6L152.8,35.4z M153.5,18.6c1.2,0,2.3,1,2.3,2.3
			c0,1.3-1,2.3-2.3,2.3s-2.3-1-2.3-2.3C151.2,19.6,152.2,18.6,153.5,18.6z"/>
		<path class="st4" d="M165.8,16.8v13.5l4.8-4.7h4.7l-6,5.7l6.5,7.2h-4.8l-4.8-5.5l-0.4,0.4v5.2h-3.6V16.8H165.8z"/>
		<path class="st4" d="M189.2,34.9c-0.7,1.8-1.8,2.5-3.2,3.4c-0.6,0.4-1.1,0.7-1.6,1.3c-0.2,0.3-0.6,0.7-0.6,1.3
			c0,0.4,0.2,0.7,0.4,0.9c0.2,0.2,0.6,0.3,0.9,0.3c0.1,0,0.7,0,1.4-0.4l-0.4,2c-0.5,0.3-1.1,0.5-1.8,0.5c-1,0-1.7-0.3-2.1-0.7
			c-0.4-0.3-0.7-0.9-0.7-1.7c0-0.6,0.1-1.2,0.5-1.7c0.3-0.4,0.7-0.8,1.1-1.1c-2.1,0-3.8-0.5-5.2-1.8c-1.4-1.3-2-3-2-4.9
			c0-2.6,1.1-4.3,2-5.2c1.4-1.3,3-1.8,4.8-1.8c2.8,0,4.3,1.3,5.1,2.1c1.4,1.6,1.5,3.7,1.5,5.1v0.3h-9.6c0,0.8,0.2,1.6,0.6,2.2
			c0.5,0.7,1.4,1.2,2.6,1.2c0.7,0,1.5-0.2,2-0.6c0.6-0.4,1-1,1-1.1L189.2,34.9z M185.9,30.3c-0.1-0.9-0.6-1.5-1.1-1.9
			c-0.5-0.4-1.2-0.7-2-0.7c-0.7,0-1.4,0.2-2,0.7c-0.4,0.3-0.9,0.9-1.1,1.9H185.9z"/>
	</g>
</g>
</svg>
