<?xml version="1.0" encoding="utf-8"?>
<!-- Generator: Adobe Illustrator 25.4.1, SVG Export Plug-In . SVG Version: 6.00 Build 0)  -->
<svg version="1.1" id="Layer_1" xmlns="http://www.w3.org/2000/svg" xmlns:xlink="http://www.w3.org/1999/xlink" x="0px" y="0px"
	 viewBox="0 0 133.6 29.6" style="enable-background:new 0 0 133.6 29.6;" xml:space="preserve">
<style type="text/css">
	.st0{fill:#231F20;}
	.st1{fill:#36B7BE;}
	.st2{fill:#FF314F;}
	.st3{fill:#DADA0A;}
	.st4{fill:#FFFFFF;}
	.st5{fill:none;stroke:#FFFFFF;stroke-width:1.4173;stroke-miterlimit:10;}
	.st6{fill:none;stroke:#36B7BE;stroke-width:2.8347;stroke-miterlimit:10;}
	.st7{opacity:0.5;}
	.st8{opacity:0.4;}
	.st9{opacity:0.15;fill:none;stroke:#231F20;stroke-miterlimit:10;}
	.st10{clip-path:url(#SVGID_00000023968006010607611370000008496664173229331869_);}
	.st11{clip-path:url(#SVGID_00000101096568035164824500000000205914019013255094_);}
</style>
<g>
	<g>
		<path class="st0" d="M46.9,29.6h-3.6V9.9h3.6v1.7c0.6-0.8,1.8-2.1,4.2-2.1c1.1,0,2.9,0.3,4.4,1.7c1,1,1.9,2.6,1.9,5.1
			c0,2.9-1.3,4.5-2,5.2c-1,0.9-2.5,1.7-4.4,1.7c-0.9,0-2.7-0.1-4.1-2.1V29.6z M47.8,13.5c-0.8,0.7-1.2,1.6-1.2,2.8s0.5,2.2,1.2,2.8
			c0.5,0.4,1.2,0.9,2.4,0.9c1.2,0,2-0.5,2.4-0.9c0.8-0.7,1.1-1.8,1.1-2.7c0-1-0.4-2-1.1-2.7c-0.7-0.6-1.6-0.9-2.5-0.9
			C49.2,12.7,48.4,12.9,47.8,13.5z"/>
		<path class="st0" d="M72.1,11.3c1.3,1.2,2.2,2.9,2.2,5.1c0,2.1-0.9,3.9-2.2,5c-1.1,1-2.8,1.8-5.2,1.8s-4.1-0.8-5.2-1.8
			c-1.3-1.2-2.2-2.9-2.2-5c0-2.1,0.9-3.9,2.2-5.1c1.1-1,2.8-1.8,5.2-1.8S71,10.3,72.1,11.3z M70.5,16.3c0-2-1.5-3.7-3.6-3.7
			s-3.6,1.6-3.6,3.7c0,2,1.5,3.6,3.6,3.6C69,20,70.5,18.3,70.5,16.3z"/>
		<path class="st0" d="M83,22.8h-1.8L74.7,9.9h4l3.4,7.4l3.5-7.4h1.7l3.5,7.4l3.4-7.4h4l-6.5,12.9h-1.8l-3.4-7.6L83,22.8z"/>
		<path class="st0" d="M100,9.9h3.6v1.9c0.6-1.1,1.3-1.6,1.6-1.8c0.6-0.4,1.3-0.6,2.1-0.6c0.6,0,1.1,0.1,1.5,0.3l-0.5,3.4
			c-0.5-0.3-1-0.5-1.7-0.5c-0.7,0-1.7,0.1-2.4,1c-0.7,0.9-0.7,2-0.7,2.9v6.2H100V9.9z"/>
		<path class="st0" d="M122.5,11.3c1.3,1.2,2.2,2.9,2.2,5.1c0,2.1-0.9,3.9-2.2,5c-1.1,1-2.8,1.8-5.2,1.8c-2.4,0-4.1-0.8-5.2-1.8
			c-1.3-1.2-2.2-2.9-2.2-5c0-2.1,0.9-3.9,2.2-5.1c1.1-1,2.8-1.8,5.2-1.8C119.8,9.4,121.4,10.3,122.5,11.3z M120.9,16.3
			c0-2-1.5-3.7-3.6-3.7s-3.6,1.6-3.6,3.7c0,2,1.5,3.6,3.6,3.6C119.4,20,120.9,18.3,120.9,16.3z M121.5,3.6l-4.5,4l-1.7-1.2l3.5-4.5
			L121.5,3.6z"/>
		<path class="st0" d="M131.1,13v9.8h-3.6V13H126V9.9h1.4V5.5h3.6v4.4h2.5V13H131.1z"/>
	</g>
	<polygon class="st1" points="0,14.4 24.9,28.7 24.9,0 	"/>
</g>
</svg>
