<?xml version="1.0" encoding="utf-8"?>
<!-- Generator: Adobe Illustrator 25.4.1, SVG Export Plug-In . SVG Version: 6.00 Build 0)  -->
<svg version="1.1" id="Layer_1" xmlns="http://www.w3.org/2000/svg" xmlns:xlink="http://www.w3.org/1999/xlink" x="0px" y="0px"
	 viewBox="0 0 239.1 67.5" style="enable-background:new 0 0 239.1 67.5;" xml:space="preserve">
<style type="text/css">
	.st0{fill:#231F20;}
	.st1{fill:#36B7BE;}
	.st2{fill:#FF314F;}
	.st3{fill:#DADA0A;}
	.st4{fill:#FFFFFF;}
	.st5{fill:none;stroke:#FFFFFF;stroke-width:1.4173;stroke-miterlimit:10;}
	.st6{fill:none;stroke:#36B7BE;stroke-width:2.8347;stroke-miterlimit:10;}
	.st7{opacity:0.5;}
	.st8{opacity:0.4;}
	.st9{opacity:0.15;fill:none;stroke:#231F20;stroke-miterlimit:10;}
	.st10{clip-path:url(#SVGID_00000163765218269387016860000008599924681257664943_);}
	.st11{clip-path:url(#SVGID_00000067202200990460008130000013394880952967409794_);}
</style>
<g>
	<rect x="8.8" y="10" class="st0" width="230.3" height="57.5"/>
	<rect class="st1" width="230.3" height="57.5"/>
	<g>
		<path class="st4" d="M41.9,29.5c-0.8-0.7-1.7-1.1-3-1.1c-2.4,0-3.6,1.8-3.6,3.6c0,2.1,1.6,3.7,3.8,3.7c0.8,0,1.9-0.2,2.9-1.1v3.5
			c-0.7,0.4-1.8,0.8-3.3,0.8c-2,0-3.8-0.8-5-1.9c-1-0.9-2.1-2.5-2.1-4.9c0-2.3,0.9-4.1,2.2-5.2c1.6-1.4,3.4-1.7,4.6-1.7
			c1.3,0,2.4,0.3,3.5,0.8V29.5z"/>
		<path class="st4" d="M49.9,35.4h6.8v3.1H43.5l7.3-9.8h-6.2v-3.1h12.6L49.9,35.4z"/>
		<path class="st4" d="M64.5,36.5l-6.1-11h4.2l4,7.3l3.6-7.3h4.1L63.9,45.3h-4.1L64.5,36.5z"/>
		<path class="st4" d="M80.4,28.7v9.8h-3.6v-9.8h-1.4v-3.1h1.4v-4.4h3.6v4.4h2.5v3.1H80.4z"/>
		<path class="st4" d="M94.7,25.6h3.6v12.9h-3.6v-1.7c-1.3,1.9-3,2.1-4,2.1c-4,0-6.6-3.1-6.6-6.9c0-3.8,2.6-6.8,6.4-6.8
			c1,0,2.9,0.2,4.1,2.1V25.6z M87.9,32c0,2.1,1.5,3.7,3.6,3.7S95,34,95,32c0-2.1-1.5-3.6-3.6-3.6S87.9,29.9,87.9,32z"/>
		<path class="st4" d="M103.5,17.9c1.2,0,2.2,1,2.2,2.2c0,1.2-1,2.2-2.2,2.2c-1.2,0-2.2-1-2.2-2.2C101.4,18.9,102.3,17.9,103.5,17.9
			z M105.4,25.6v19.7h-3.6V25.6H105.4z"/>
		<path class="st4" d="M125.6,16.8h3.6v21.7h-3.6v-1.7c-1.3,1.9-3,2.1-4,2.1c-4,0-6.6-3.1-6.6-6.9c0-3.8,2.6-6.8,6.4-6.8
			c1,0,2.9,0.2,4.1,2.1V16.8z M118.8,32c0,2.1,1.5,3.7,3.6,3.7S126,34,126,32c0-2.1-1.5-3.6-3.6-3.6S118.8,29.9,118.8,32z"/>
		<path class="st4" d="M142.5,25.6h3.6v12.9h-3.6v-1.7c-1.3,1.9-3,2.1-4,2.1c-4,0-6.6-3.1-6.6-6.9c0-3.8,2.6-6.8,6.4-6.8
			c1,0,2.9,0.2,4.1,2.1V25.6z M135.7,32c0,2.1,1.5,3.7,3.6,3.7s3.6-1.6,3.6-3.7c0-2.1-1.5-3.6-3.6-3.6S135.7,29.9,135.7,32z"/>
		<path class="st4" d="M153.1,16.8v21.7h-3.6V16.8H153.1z"/>
		<path class="st4" d="M169.2,34.9c-0.4,1-1.8,4-6.3,4c-2.1,0-3.7-0.6-4.9-1.8c-1.4-1.3-2-3-2-5c0-2.6,1-4.1,2-5.1
			c1.5-1.5,3.3-1.8,4.9-1.8c2.6,0,4.1,1,5,2.1c1.4,1.6,1.5,3.7,1.5,5.1v0.3h-9.6c0,0.8,0.2,1.6,0.6,2.2c0.4,0.5,1.2,1.2,2.6,1.2
			c1.4,0,2.4-0.7,3-1.7L169.2,34.9z M165.8,30.3c-0.3-1.8-1.7-2.6-3.1-2.6c-1.3,0-2.7,0.9-3,2.6H165.8z"/>
		<path class="st4" d="M173.7,17.9c1.2,0,2.2,1,2.2,2.2c0,1.2-1,2.2-2.2,2.2c-1.2,0-2.2-1-2.2-2.2C171.6,18.9,172.5,17.9,173.7,17.9
			z M175.6,25.6v19.7h-3.6V25.6H175.6z"/>
		<path class="st4" d="M181,34.2c1.3,0,2.3,1,2.3,2.3c0,1.3-1,2.3-2.3,2.3s-2.3-1-2.3-2.3C178.7,35.2,179.7,34.2,181,34.2z"/>
		<path class="st4" d="M188.6,34.2c1.3,0,2.3,1,2.3,2.3c0,1.3-1,2.3-2.3,2.3s-2.3-1-2.3-2.3C186.2,35.2,187.2,34.2,188.6,34.2z"/>
		<path class="st4" d="M196.1,34.2c1.3,0,2.3,1,2.3,2.3c0,1.3-1,2.3-2.3,2.3s-2.3-1-2.3-2.3C193.8,35.2,194.8,34.2,196.1,34.2z"/>
	</g>
</g>
</svg>
