<?xml version="1.0" encoding="utf-8"?>
<!-- Generator: Adobe Illustrator 23.0.1, SVG Export Plug-In . SVG Version: 6.00 Build 0)  -->
<svg version="1.1" id="Warstwa_1" xmlns="http://www.w3.org/2000/svg" xmlns:xlink="http://www.w3.org/1999/xlink" x="0px" y="0px"
	 viewBox="0 0 300 47" style="enable-background:new 0 0 300 47;" xml:space="preserve">
<g>
	<path d="M118,20.6h-5.3v25.9h5.7V30.1L131,46.5h4.9V20.6h-5.7v15.9L118,20.6z M19.4,45.8c0.1,0,0.2-0.1,0.3-0.2v-6.6
		c-0.1,0.1-0.1,0.1-0.1,0.2C18.9,40,18,40.6,17.1,41c-1,0.4-2,0.6-3.2,0.6c-1.2,0-2.2-0.2-3.2-0.6c-1-0.4-1.8-1-2.5-1.8
		c-0.7-0.7-1.3-1.6-1.6-2.6c-0.4-1-0.6-2-0.6-3.1v-0.1c0-1.1,0.2-2.2,0.6-3.1c0.4-1,0.9-1.8,1.6-2.6c0.7-0.7,1.5-1.3,2.5-1.7
		c1-0.4,2-0.6,3.2-0.6c1.1,0,2.2,0.2,3.2,0.6c1,0.4,1.8,1,2.5,1.8c0.1,0.1,0.1,0.2,0.2,0.2v-6.7c-0.1,0-0.2-0.1-0.2-0.1
		c-1.7-0.7-3.5-1.1-5.6-1.1s-3.9,0.4-5.6,1.1c-1.7,0.7-3.2,1.7-4.4,2.9c-1.2,1.2-2.2,2.6-2.9,4.2c-0.7,1.6-1,3.3-1,5.2v0.1
		c0,1.8,0.3,3.6,1,5.2c0.7,1.6,1.6,3,2.9,4.2c1.2,1.2,2.7,2.1,4.4,2.8c1.7,0.7,3.5,1.1,5.6,1.1C15.8,46.9,17.7,46.5,19.4,45.8
		 M26.9,46.5h21.7v-5H34.2L48.6,25v-4.3H27.3v5h13.9L26.9,42.2C26.9,42.2,26.9,46.5,26.9,46.5z M74,11l3.9-10.7h-2.1l-1.5,4.3
		c-0.3,0.7-0.5,1.9-0.6,1.9c0-0.1-0.3-1.2-0.7-1.9l-2.1-4.4h-0.2l-2,4.4c-0.3,0.7-0.6,1.9-0.7,1.9c0-0.1-0.3-1.2-0.6-1.9l-1.5-4.3
		h-2.3L67.4,11h0.2l2.5-5.1c0.3-0.6,0.6-1.5,0.6-1.6c0,0.1,0.3,1,0.6,1.6l2.4,5.1C73.7,11,74,11,74,11z M69.8,35.7h-6.9l3.5-8.4
		L69.8,35.7z M74.2,46.5h6L69,20.5h-5.3l-11.2,26h5.9l2.4-5.8h11L74.2,46.5z M89.2,6.9l3.4-6.6h-2.3L89,3.2c-0.4,0.8-0.8,2-0.8,2
		s-0.5-1.3-0.9-2l-1.5-2.9h-2.5L87,7v3.9h2.2V6.9z M100.9,29.5c0,1.1-0.4,2-1.1,2.7c-0.8,0.7-1.8,1-3.3,1h-5.8v-7.4h5.7
		c1.4,0,2.5,0.3,3.3,0.9C100.5,27.3,100.9,28.2,100.9,29.5L100.9,29.5L100.9,29.5z M104.5,23.3c-1.8-1.7-4.3-2.6-7.6-2.6H85v25.9
		h5.7v-8.3h4.4h0.1l5.6,8.3h6.7l-6.4-9.2c1.7-0.6,3-1.6,4-2.9c1-1.3,1.5-3,1.5-5.1v-0.1C106.7,26.7,106,24.7,104.5,23.3 M105.4,5.6
		c0,2-1.1,3.4-3.4,3.4h-1V2.2h1C104.3,2.2,105.4,3.6,105.4,5.6 M107.7,5.6c0-3.1-2.3-5.3-5.6-5.3h-3.3v10.6h3.3
		C105.4,10.9,107.7,8.7,107.7,5.6 M118.5,7.6h-2.6l0.7-1.6c0.3-0.7,0.6-1.8,0.6-1.9c0,0.1,0.3,1.2,0.6,1.9L118.5,7.6z M119.9,10.9
		h2.3l-4.9-10.7h-0.2l-4.7,10.7h2.1l0.6-1.4h4.1L119.9,10.9z M136.4,11l3.9-10.7h-2.1l-1.5,4.3c-0.3,0.7-0.5,1.9-0.6,1.9
		c0-0.1-0.3-1.2-0.7-1.9l-2.1-4.4h-0.2l-2,4.4c-0.3,0.7-0.6,1.9-0.7,1.9c0-0.1-0.3-1.2-0.6-1.9l-1.6-4.3H126l3.9,10.7h0.2l2.5-5.1
		c0.3-0.6,0.6-1.5,0.6-1.6c0,0.1,0.3,1,0.6,1.6l2.4,5.1C136.2,11,136.4,11,136.4,11z M154.9,11h0.2V0.3h-2v4.5
		c0,0.7,0.1,1.9,0.1,1.9s-0.7-1-1.3-1.5l-5.4-5h-0.2v10.7h2V6.4c0-0.8-0.2-1.9-0.2-1.9s0.7,1,1.3,1.5L154.9,11z M162.1,10.9h2.2V0.3
		h-2.2V10.9z M157.9,35.7h-6.9l3.5-8.4L157.9,35.7z M162.3,46.5h6l-11.2-26h-5.3l-11.2,26h5.9l2.4-5.8h11L162.3,46.5z M173.2,5.6
		c0-2,1.3-3.5,3.2-3.5c1.2,0,2.1,0.6,2.6,1.4l1.7-1.2c-1-1.5-2.3-2.2-4.3-2.2c-3.1,0-5.5,2.3-5.5,5.4c0,3.1,2.4,5.5,5.5,5.5
		c2,0,3.5-0.9,4.4-2.3l-1.7-1.2c-0.6,0.9-1.4,1.6-2.7,1.6C174.5,9.1,173.2,7.6,173.2,5.6 M191.8,2.2h3V0.3h-8.3v1.9h3v8.7h2.2V2.2z
		 M199.9,32.9c0,1.1-0.2,2.1-0.6,3.1c-0.4,1-0.9,1.8-1.6,2.6c-0.7,0.7-1.5,1.3-2.5,1.7c-1,0.4-2,0.6-3.2,0.6c-1.2,0-2.2-0.2-3.2-0.6
		c-1-0.4-1.8-1-2.5-1.8c-0.7-0.7-1.3-1.6-1.6-2.6c-0.4-1-0.6-2-0.6-3.1v-0.1c0-1.1,0.2-2.1,0.6-3.1c0.4-1,0.9-1.8,1.6-2.6
		c0.7-0.7,1.5-1.3,2.5-1.7c1-0.4,2-0.6,3.2-0.6c1.1,0,2.2,0.2,3.2,0.6c1,0.4,1.8,1,2.5,1.8c0.7,0.7,1.3,1.6,1.6,2.6
		C199.7,30.7,199.9,31.7,199.9,32.9L199.9,32.9L199.9,32.9z M202,23.4c-1.2-1.2-2.7-2.1-4.4-2.8c-1.7-0.7-3.5-1.1-5.6-1.1
		c-2,0-3.9,0.3-5.6,1.1c-1.7,0.7-3.2,1.7-4.4,2.9c-1.2,1.2-2.2,2.6-2.9,4.2c-0.7,1.6-1,3.3-1,5.2v0.1c0,1.8,0.3,3.6,1,5.2
		c0.7,1.6,1.6,3,2.9,4.2c1.2,1.2,2.7,2.1,4.4,2.8c1.7,0.7,3.5,1.1,5.6,1.1c2,0,3.9-0.4,5.6-1.1c1.7-0.7,3.2-1.7,4.4-2.9
		c1.2-1.2,2.2-2.6,2.9-4.2c0.7-1.6,1-3.3,1-5.2v-0.1c0-1.8-0.3-3.6-1-5.2C204.2,26,203.3,24.6,202,23.4 M211,11l3.9-10.7h-2.1
		l-1.5,4.3c-0.3,0.7-0.5,1.9-0.6,1.9c0-0.1-0.3-1.2-0.7-1.9l-2.1-4.4h-0.2l-2.1,4.4c-0.3,0.7-0.6,1.9-0.7,1.9c0-0.1-0.3-1.2-0.6-1.9
		l-1.6-4.3h-2.3l3.9,10.7h0.2l2.5-5.1c0.3-0.6,0.6-1.5,0.6-1.6c0,0.1,0.3,1,0.6,1.6l2.4,5.1C210.7,11,211,11,211,11z M228.7,5.6
		c0,2-1.3,3.5-3.3,3.5c-1.9,0-3.3-1.5-3.3-3.5c0-2,1.3-3.5,3.3-3.5C227.4,2.1,228.7,3.6,228.7,5.6 M230.9,5.6c0-3.1-2.4-5.5-5.5-5.5
		c-3.1,0-5.5,2.3-5.5,5.5c0,3.1,2.4,5.5,5.5,5.5C228.5,11,230.9,8.7,230.9,5.6 M239.3,46l8.9-26h-6l-5.4,17.5L231,19.8H226
		l-5.9,17.6l-5.4-17.5h-6.2l8.9,26h5l5.9-16.9l5.9,16.9H239.3z M266.3,46.6c0.9-0.2,1.8-0.5,2.5-0.8v-6.2c-0.7,0.5-1.3,1-2,1.3
		c-1,0.5-2.3,0.8-3.8,0.8c-1.1,0-2.1-0.2-3.1-0.6c-0.9-0.4-1.7-1-2.4-1.8c-0.7-0.7-1.2-1.6-1.5-2.6c-0.4-1-0.6-2-0.6-3.1v-0.1
		c0-1.1,0.2-2.2,0.6-3.1c0.4-1,0.9-1.8,1.6-2.6c0.7-0.7,1.5-1.3,2.4-1.7c0.9-0.4,1.9-0.6,3-0.6c1.3,0,2.5,0.3,3.6,0.8
		c0.8,0.4,1.5,0.9,2.2,1.4v-6.4c-0.7-0.3-1.5-0.5-2.4-0.7c-1-0.2-2.1-0.3-3.3-0.3c-2,0-3.9,0.4-5.5,1.1c-1.7,0.7-3.1,1.7-4.3,2.9
		c-1.2,1.2-2.1,2.6-2.8,4.2c-0.7,1.6-1,3.3-1,5.2v0.1c0,1.8,0.3,3.6,1,5.2c0.7,1.6,1.6,3,2.8,4.2c1.2,1.2,2.6,2.1,4.3,2.8
		c1.6,0.7,3.4,1,5.3,1C264.1,46.9,265.3,46.8,266.3,46.6 M289.6,35h-6.9l3.5-8.4L289.6,35z M300,45.8l-11.2-26h-5.3l-11.2,26h5.9
		l2.4-5.8h11l2.4,5.8H300z"/>
</g>
</svg>
