<?xml version="1.0" encoding="utf-8"?>
<!-- Generator: Adobe Illustrator 25.4.1, SVG Export Plug-In . SVG Version: 6.00 Build 0)  -->
<svg version="1.1" id="Layer_1" xmlns="http://www.w3.org/2000/svg" xmlns:xlink="http://www.w3.org/1999/xlink" x="0px" y="0px"
	 viewBox="0 0 542.9 337.2" style="enable-background:new 0 0 542.9 337.2;" xml:space="preserve">
<style type="text/css">
	.st0{fill:#231F20;}
	.st1{fill:#36B7BE;}
	.st2{fill:#FF314F;}
	.st3{fill:#DADA0A;}
	.st4{fill:#FFFFFF;}
	.st5{fill:none;stroke:#FFFFFF;stroke-width:1.4173;stroke-miterlimit:10;}
	.st6{fill:none;stroke:#36B7BE;stroke-width:2.8347;stroke-miterlimit:10;}
	.st7{opacity:0.5;}
	.st8{opacity:0.4;}
	.st9{opacity:0.15;fill:none;stroke:#231F20;stroke-miterlimit:10;}
	.st10{clip-path:url(#SVGID_00000052795294797242730720000013134156823105453450_);}
	.st11{clip-path:url(#SVGID_00000050623574886644536420000010970840861320086176_);}
</style>
<g>
	<g>
		<rect x="17.4" class="st0" width="386.3" height="156.5"/>
		<rect y="19.1" class="st1" width="386.3" height="156.5"/>
		<g>
			<path class="st4" d="M80.1,113.5c-3.6,1.8-6.5,2.2-9,2.2c-7.5,0-12.5-2.6-16-5.9c-3.7-3.5-6.3-8.9-6.3-15.4
				c0-6.4,2.7-11.8,6.3-15.3c3.6-3.5,8.8-5.8,15.2-5.8c2.7,0,5.8,0.5,9.7,2.3v10.8C78.1,84.2,75,82,70.6,82c-3.4,0-6.2,1.1-8.3,3.2
				c-2.3,2.2-3.8,5.5-3.8,9.4c0,4.2,1.7,7.2,3.5,9c0.9,0.9,3.8,3.4,8.8,3.4c2.4,0,5.7-0.7,9.3-4.2V113.5z"/>
			<path class="st4" d="M98.3,107.5h12.9v7.3H83.4l14.1-19.9h-12v-7.3h26.8L98.3,107.5z"/>
			<path class="st4" d="M127.2,111.3l-13-23.7h10.1l7.7,14.7l7.5-14.7h9.9l-21.9,41.1h-9.9L127.2,111.3z"/>
			<path class="st4" d="M163.1,94.7v20.1h-8.8V94.7h-3v-7.1h3v-8.8h8.8v8.8h5.4v7.1H163.1z"/>
			<path class="st4" d="M192.6,87.6h8.8v27.2h-8.8v-3.3c-2.4,3.7-5.8,4.2-8,4.2c-3.9,0-7.2-1-10.2-4.1c-2.9-3-4-6.6-4-10.2
				c0-4.6,1.7-8.5,4.2-11c2.4-2.4,5.7-3.7,9.4-3.7c2.3,0,6,0.5,8.5,4V87.6z M181.5,96.2c-0.9,0.9-2,2.5-2,4.9s1,4,1.8,4.9
				c1.2,1.3,3.1,2.1,5.2,2.1c1.8,0,3.4-0.7,4.6-1.9c1.2-1.1,2.1-2.8,2.1-5.1c0-1.9-0.7-3.8-2-5c-1.3-1.3-3.3-1.9-4.9-1.9
				C184.4,94.3,182.6,95.1,181.5,96.2z"/>
			<path class="st4" d="M207.7,87.6h8.8v3.2c2.3-3.4,5.5-3.8,7.6-3.8c1.2,0,3.3,0.1,5.1,1.2c1.4,0.8,2.6,2.1,3.3,3.8
				c0.7-1.1,1.7-2.4,3.5-3.5c1.9-1.2,3.7-1.5,5.8-1.5c3.3,0,6,1,7.6,2.6c2.6,2.5,2.8,6.2,2.8,8.1v17.2h-8.8V101c0-1.4,0-3.8-1.2-5.3
				c-0.7-0.9-1.9-1.5-3.2-1.5c-1.5,0-2.7,0.7-3.4,1.6c-1.2,1.5-1.3,3.6-1.3,5.4v13.5h-8.8v-14.1c0-1.8-0.1-4-1.4-5.3
				c-0.9-0.9-2-1.1-2.9-1.1c-1.2,0-2.2,0.3-3,1.1c-1.6,1.6-1.7,4.6-1.7,5.5v13.9h-8.8V87.6z"/>
			<path class="st4" d="M282.3,94.7v20.1h-8.8V94.7h-3v-7.1h3v-8.8h8.8v8.8h5.4v7.1H282.3z"/>
			<path class="st4" d="M317.4,111.3c-2.4,2.4-6.6,4.4-11.9,4.4s-9.4-1.9-11.9-4.4c-2.7-2.7-4.1-6.6-4.1-10.1s1.3-7.4,4.1-10.1
				c2.4-2.4,6.6-4.4,11.9-4.4s9.4,1.9,11.9,4.4c2.7,2.7,4.1,6.6,4.1,10.1S320.1,108.6,317.4,111.3z M300.6,96.1
				c-1.3,1.3-2,2.9-2,5.1c0,2.5,1,4.1,2,5.1c1.1,1.1,2.7,1.9,5,1.9c1.9,0,3.6-0.7,4.9-1.9c1.3-1.3,2-2.9,2-5.1s-0.7-3.8-2-5.1
				c-1.3-1.3-2.9-1.9-4.9-1.9S301.9,94.8,300.6,96.1z"/>
			<path class="st4" d="M331.5,104.7c3.1,0,5.5,2.4,5.5,5.5s-2.4,5.5-5.5,5.5c-3.1,0-5.5-2.4-5.5-5.5S328.4,104.7,331.5,104.7z
				 M327,101.7V74.2h9v27.5H327z"/>
		</g>
	</g>
	<g>
		<polygon class="st2" points="542.9,216.9 501.9,231.4 534.9,259.8 491.4,258.4 512.2,296.7 471.8,280.3 478.3,323.3 445.8,294.4 
			437.8,337.2 416.4,299.2 395,337.2 387,294.4 354.5,323.3 361,280.3 320.6,296.7 341.4,258.4 297.9,259.8 330.9,231.4 
			289.9,216.9 330.9,202.5 297.9,174.1 341.4,175.4 320.6,137.2 361,153.6 354.5,110.6 387,139.5 395,96.7 416.4,134.6 437.8,96.7 
			445.8,139.5 478.3,110.6 471.8,153.6 512.2,137.2 491.4,175.4 534.9,174.1 501.9,202.5 		"/>
	</g>
</g>
</svg>
