<?xml version="1.0" encoding="utf-8"?>
<!-- Generator: Adobe Illustrator 23.0.1, SVG Export Plug-In . SVG Version: 6.00 Build 0)  -->
<svg version="1.1" id="Warstwa_1" xmlns="http://www.w3.org/2000/svg" xmlns:xlink="http://www.w3.org/1999/xlink" x="0px" y="0px"
	 viewBox="0 0 106 41" style="enable-background:new 0 0 106 41;" xml:space="preserve">
<g>
	<g>
		<g>
			<g>
				<g>
					<path d="M45.8,17v1.7H51V22h-5.3V24H51v3.3h-5.3h-4.1h0V13.7h0h4.1H51V17H45.8z"/>
					<path d="M69,25.4c-1.3,1.3-3.1,2.1-5.1,2.1c-4,0-7.2-3.1-7.2-7c0-3.9,3.2-7,7.2-7c2,0,3.8,0.8,5.1,2.1l-2.9,2.8
						c-0.6-0.6-1.4-1-2.2-1c-1.6,0-3.1,1.4-3.1,3.2c0,1.9,1.5,3.2,3.1,3.2c0.9,0,1.7-0.4,2.3-1L69,25.4z"/>
					<path d="M86.4,13.7v13.6h-4.1v-5h-4.1v5h-4.1V13.7h4.1v5.4h4.1v-5.4H86.4z"/>
					<path d="M95.5,27.3h-4.6l7.2-14l7.2,14h-4.7l-2.6-6L95.5,27.3z"/>
				</g>
			</g>
		</g>
	</g>
	<g>
		<polygon points="28.1,41 28.1,34.2 23.5,34.2 		"/>
		<polygon points="28.1,20.5 14.4,20.5 19,27.3 28.1,27.3 		"/>
		<polygon points="28.1,6.9 5.3,6.9 9.9,13.7 28.1,13.7 		"/>
		<polygon points="0.6,0 0.6,6.8 5.2,6.8 		"/>
		<polygon points="9.7,13.7 0.6,13.7 0.6,20.5 14.3,20.5 		"/>
		<polygon points="18.8,27.3 0.6,27.3 0.6,34.1 23.4,34.1 		"/>
	</g>
</g>
</svg>
