<?xml version="1.0" encoding="utf-8"?>
<!-- Generator: Adobe Illustrator 19.0.0, SVG Export Plug-In . SVG Version: 6.00 Build 0)  -->
<svg version="1.1" id="Warstwa_1" xmlns:serif="http://www.serif.com/"
	 xmlns="http://www.w3.org/2000/svg" xmlns:xlink="http://www.w3.org/1999/xlink" x="0px" y="0px" viewBox="0 0 200 200"
	 style="enable-background:new 0 0 200 200;" xml:space="preserve">
<style type="text/css">
	.st0{fill:#363894;}
</style>
<path class="st0" d="M99.6,200L99.6,200L99.6,200C99.7,200,99.6,200,99.6,200z M100.3,200L100.3,200L100.3,200L100.3,200z M99.3,200
	L99.3,200L99.3,200L99.3,200z M100.6,200L100.6,200L100.6,200L100.6,200z M99,200L99,200L99,200C99,200,99,200,99,200z M101,200
	L101,200L101,200L101,200L101,200z M101.3,200L101.3,200L101.3,200L101.3,200L101.3,200z M98.6,200L98.6,200L98.6,200L98.6,200
	L98.6,200z M101.6,200L101.6,200L101.6,200L101.6,200L101.6,200z M98.3,200l0.1,0L98.3,200L98.3,200L98.3,200z M101.9,200L101.9,200
	L101.9,200L101.9,200z M98,200L98,200L98,200C98.1,200,98,200,98,200z M97.7,200L97.7,200L97.7,200C97.7,200,97.7,200,97.7,200z
	 M102.3,200L102.3,200L102.3,200L102.3,200z M97.3,200l0.1,0L97.3,200L97.3,200z M102.6,200L102.6,200L102.6,200L102.6,200z
	 M102.9,200L102.9,200L102.9,200L102.9,200L102.9,200z M97.1,200l0.1,0L97.1,200C97.1,200,97.1,200,97.1,200z M96.8,199.9
	L96.8,199.9L96.8,199.9L96.8,199.9L96.8,199.9z M103.2,199.9L103.2,199.9L103.2,199.9L103.2,199.9L103.2,199.9z M103.5,199.9
	L103.5,199.9L103.5,199.9L103.5,199.9z M96.4,199.9l0.1,0L96.4,199.9L96.4,199.9z M96.1,199.9l0.1,0L96.1,199.9L96.1,199.9z
	 M103.9,199.9L103.9,199.9L103.9,199.9L103.9,199.9z M95.8,199.9l0.1,0L95.8,199.9L95.8,199.9L95.8,199.9z M104.2,199.9l-0.1,0
	L104.2,199.9L104.2,199.9L104.2,199.9z M95.4,199.9l0.1,0l0,0L95.4,199.9z M104.5,199.9L104.5,199.9l0.1,0L104.5,199.9L104.5,199.9z
	 M95.1,199.9l0.2,0L95.1,199.9L95.1,199.9z M104.8,199.9L104.8,199.9L104.8,199.9L104.8,199.9z M94.8,199.9l0.2,0L94.8,199.9
	L94.8,199.9z M105.1,199.9l-0.1,0L105.1,199.9L105.1,199.9z M105.5,199.9l-0.1,0L105.5,199.9l0.1,0L105.5,199.9L105.5,199.9z
	 M94.6,199.9l0.1,0L94.6,199.9l-0.1,0L94.6,199.9L94.6,199.9z M105.8,199.8L105.8,199.8L105.8,199.8L105.8,199.8z M94.1,199.8l0.2,0
	L94.1,199.8L94.1,199.8z M93.8,199.8l0.2,0L93.8,199.8L93.8,199.8L93.8,199.8z M106.1,199.8L106.1,199.8L106.1,199.8L106.1,199.8
	L106.1,199.8z M93.6,199.8l0.1,0L93.6,199.8l-0.1,0C93.4,199.8,93.6,199.8,93.6,199.8z M106.4,199.8l-0.1,0L106.4,199.8l0.1,0
	L106.4,199.8L106.4,199.8z M106.7,199.8L106.7,199.8l0.1,0L106.7,199.8L106.7,199.8z M93.2,199.8l0.2,0l0,0L93.2,199.8z M92.9,199.7
	l0.1,0L92.9,199.7C92.9,199.8,92.9,199.7,92.9,199.7z M107.1,199.8L107.1,199.8L107.1,199.8L107.1,199.8z M92.6,199.7l0.1,0
	L92.6,199.7L92.6,199.7L92.6,199.7z M107.4,199.7l-0.1,0L107.4,199.7L107.4,199.7L107.4,199.7z M92.2,199.7l0.1,0L92.2,199.7
	L92.2,199.7z M107.7,199.7L107.7,199.7L107.7,199.7L107.7,199.7z M108,199.7L108,199.7L108,199.7L108,199.7z M91.9,199.7l0.1,0
	L91.9,199.7C92,199.7,91.9,199.7,91.9,199.7z M91.6,199.7l0.1,0L91.6,199.7L91.6,199.7z M108.3,199.7L108.3,199.7L108.3,199.7
	L108.3,199.7z M91.3,199.6L91.3,199.6L91.3,199.6L91.3,199.6L91.3,199.6z M108.6,199.6L108.6,199.6L108.6,199.6L108.6,199.6
	L108.6,199.6z M109,199.6L109,199.6L109,199.6L109,199.6L109,199.6z M91,199.6L91,199.6L91,199.6L91,199.6L91,199.6z M90.7,199.6
	L90.7,199.6L90.7,199.6L90.7,199.6z M109.3,199.6L109.3,199.6L109.3,199.6L109.3,199.6z M84.4,198.8C36.6,191.3,0,149.9,0,100
	C0,44.8,44.8,0,100,0s100,44.8,100,100c0,49.9-36.6,91.3-84.4,98.8v-69.9h23.3l4.4-28.9h-27.7V81.2c0-7.9,3.9-15.6,16.3-15.6h12.6
	V41c0,0-11.4-2-22.4-2c-22.8,0-37.8,13.8-37.8,38.9v22H59v28.9h25.4V198.8z"/>
</svg>
