<svg width="43" height="43" viewBox="0 0 43 43" fill="none" xmlns="http://www.w3.org/2000/svg">
<path d="M21.1 42.2C32.7532 42.2 42.2 32.7532 42.2 21.1C42.2 9.44679 32.7532 0 21.1 0C9.44679 0 0 9.44679 0 21.1C0 32.7532 9.44679 42.2 21.1 42.2Z" fill="#1877F2"/>
<path d="M18.5 31.6H22.7V21H25.6L25.9 17.5H22.7C22.7 17.5 22.7 16.2 22.7 15.5C22.7 14.7 22.9 14.3 23.7 14.3C24.3 14.3 26 14.3 26 14.3V10.6C26 10.6 23.6 10.6 23.1 10.6C20 10.6 18.6 12 18.6 14.6C18.6 16.9 18.6 17.4 18.6 17.4H16.4V21H18.6V31.6H18.5Z" fill="white"/>
</svg>
