<?xml version="1.0" encoding="utf-8"?>
<!-- Generator: Adobe Illustrator 25.4.1, SVG Export Plug-In . SVG Version: 6.00 Build 0)  -->
<svg version="1.1" id="Layer_1" xmlns="http://www.w3.org/2000/svg" xmlns:xlink="http://www.w3.org/1999/xlink" x="0px" y="0px"
	 viewBox="0 0 281.7 267.7" style="enable-background:new 0 0 281.7 267.7;" xml:space="preserve">
<style type="text/css">
	.st0{fill:#231F20;}
	.st1{fill:#36B7BE;}
	.st2{fill:#FF314F;}
	.st3{fill:#DADA0A;}
	.st4{fill:#FFFFFF;}
	.st5{fill:none;stroke:#FFFFFF;stroke-width:1.4173;stroke-miterlimit:10;}
	.st6{fill:none;stroke:#36B7BE;stroke-width:2.8347;stroke-miterlimit:10;}
	.st7{opacity:0.5;}
	.st8{opacity:0.4;}
	.st9{opacity:0.15;fill:none;stroke:#231F20;stroke-miterlimit:10;}
	.st10{clip-path:url(#SVGID_00000026151661039909860980000010231409079694280615_);}
	.st11{clip-path:url(#SVGID_00000034802914865731966610000011110585376607980436_);}
</style>
<g>
	<g>
		<polygon class="st2" points="281.7,133.8 236,150 272.7,181.5 224.3,180 247.4,222.6 202.5,204.4 209.8,252.3 173.6,220.1 
			164.6,267.7 140.8,225.5 117.1,267.7 108.1,220.1 71.9,252.3 79.1,204.4 34.2,222.6 57.3,180 8.9,181.5 45.6,150 0,133.8 
			45.6,117.7 8.9,86.2 57.3,87.7 34.2,45.1 79.1,63.3 71.9,15.4 108.1,47.6 117.1,0 140.8,42.2 164.6,0 173.6,47.6 209.8,15.4 
			202.5,63.3 247.4,45.1 224.3,87.7 272.7,86.2 236,117.7 		"/>
	</g>
	<g>
		<path class="st4" d="M121.4,90.2c1.8,0,3.1,1.4,3.1,3.1s-1.4,3.1-3.1,3.1c-1.8,0-3.1-1.4-3.1-3.1S119.6,90.2,121.4,90.2z
			 M124,100.4v25.2h-5.4v-25.2H124z"/>
		<path class="st4" d="M133.5,100.4v9.2c0,0.7,0.1,1.9,0.9,2.7c0.4,0.3,1,0.8,2.2,0.8c1,0,1.8-0.3,2.3-0.8c0.8-0.7,0.9-1.9,0.9-2.7
			v-9.2h5.4v9.7c0,1.9-0.2,3.7-1.9,5.3c-1.9,1.9-4.7,2.2-6.7,2.2c-2.1,0-4.8-0.3-6.7-2.2c-1.5-1.5-1.8-3.2-1.8-5v-10H133.5z"/>
		<path class="st4" d="M156.4,112.5h7.9v4.5h-17l8.6-12.2h-7.3v-4.5H165L156.4,112.5z M155.9,91.4c1.8,0,3.1,1.3,3.1,3.1
			s-1.3,3.1-3.1,3.1c-1.8,0-3.1-1.3-3.1-3.1S154.2,91.4,155.9,91.4z"/>
		<path class="st4" d="M79.2,161.7h-3.4l-8.3-16.6h5.9l4.3,8.8l4.2-9.1h2.8L89,154l4.3-8.8h5.9l-8.3,16.6h-3.4l-4.2-9.5L79.2,161.7z
			"/>
		<path class="st4" d="M106.7,134.6v16.7l6-6.1h7l-7.9,7.5l8.5,9.1h-7.2l-6.4-7.2v7.2h-5.4v-27.2H106.7z"/>
		<path class="st4" d="M122.4,145.1h5.4v2.6c0.5-0.9,1.2-1.8,2.1-2.3c0.9-0.6,1.8-0.7,2.9-0.7c0.7,0,1.2,0.1,1.8,0.3l-0.3,5
			c-0.7-0.4-1.5-0.6-2.4-0.6c-1.2,0-2,0.4-2.7,1.1c-1.2,1.3-1.3,3.1-1.3,4.5v6.7h-5.4V145.1z"/>
		<path class="st4" d="M152.8,159.6c-1.5,1.5-4,2.7-7.3,2.7s-5.8-1.2-7.3-2.7c-1.7-1.7-2.5-4.1-2.5-6.2c0-2.1,0.8-4.5,2.5-6.2
			c1.5-1.5,4-2.7,7.3-2.7s5.8,1.2,7.3,2.7c1.7,1.7,2.5,4.1,2.5,6.2C155.3,155.6,154.5,157.9,152.8,159.6z M142.5,150.3
			c-0.8,0.8-1.2,1.8-1.2,3.1c0,1.5,0.6,2.5,1.2,3.1c0.7,0.7,1.6,1.2,3.1,1.2c1.2,0,2.2-0.4,3-1.2c0.8-0.8,1.2-1.8,1.2-3.1
			c0-1.3-0.4-2.3-1.2-3.1c-0.8-0.8-1.8-1.2-3-1.2C144.3,149.1,143.3,149.5,142.5,150.3z M151,137.5l-5.7,5l-2.4-1.8l4.6-5.7
			L151,137.5z"/>
		<path class="st4" d="M164.1,149.4v12.3h-5.4v-12.3h-1.9v-4.3h1.9v-5.4h5.4v5.4h3.3v4.3H164.1z"/>
		<path class="st4" d="M182.1,150.4c-1.3-1.1-2.6-1.3-3.5-1.3c-1.7,0-2.7,0.8-3.1,1.2c-0.7,0.7-1.2,1.8-1.2,3.1c0,1.2,0.4,2.3,1.1,3
			c0.8,0.9,2.1,1.3,3.2,1.3c0.9,0,2.2-0.3,3.4-1.3v4.8c-1.4,0.8-2.8,1-4.2,1c-2.8,0-4.9-1-6.4-2.5c-1.3-1.2-2.6-3.3-2.6-6.3
			c0-2.8,1.2-5.1,2.8-6.6c1.9-1.8,4.1-2.3,6.3-2.3c1.5,0,2.8,0.3,4.2,0.9V150.4z"/>
		<path class="st4" d="M202.6,154.4h-12.4c0,0.9,0.3,2.1,1,2.8c0.8,0.9,1.9,1,2.8,1c0.8,0,1.6-0.1,2.2-0.5c0.1,0,0.7-0.4,1.2-1.4
			l5.1,0.5c-0.7,2.3-2.2,3.6-3.2,4.2c-1.6,1-3.4,1.2-5.3,1.2c-2.5,0-4.7-0.4-6.6-2.4c-1.5-1.5-2.5-3.7-2.5-6.4
			c0-2.4,0.9-4.8,2.5-6.6c2-2,4.5-2.4,6.4-2.4s4.5,0.3,6.6,2.5c2,2.1,2.3,4.7,2.3,6.7V154.4z M197.6,151.2c0-0.1-0.3-1.2-1.1-1.9
			c-0.6-0.6-1.5-0.9-2.5-0.9c-1.4,0-2.2,0.6-2.7,1.1c-0.4,0.4-0.8,1-0.9,1.8H197.6z"/>
		<path class="st4" d="M209,155.6c1.9,0,3.4,1.5,3.4,3.4s-1.5,3.4-3.4,3.4c-1.9,0-3.4-1.5-3.4-3.4S207.1,155.6,209,155.6z
			 M206.3,153.7v-16.8h5.5v16.8H206.3z"/>
	</g>
</g>
</svg>
