<?xml version="1.0" encoding="utf-8"?>
<!-- Generator: Adobe Illustrator 25.4.1, SVG Export Plug-In . SVG Version: 6.00 Build 0)  -->
<svg version="1.1" id="Layer_1" xmlns="http://www.w3.org/2000/svg" xmlns:xlink="http://www.w3.org/1999/xlink" x="0px" y="0px"
	 viewBox="0 0 140.7 133.7" style="enable-background:new 0 0 140.7 133.7;" xml:space="preserve">
<style type="text/css">
	.st0{fill:#231F20;}
	.st1{fill:#36B7BE;}
	.st2{fill:#FF314F;}
	.st3{fill:#DADA0A;}
	.st4{fill:#FFFFFF;}
	.st5{fill:none;stroke:#FFFFFF;stroke-width:1.4173;stroke-miterlimit:10;}
	.st6{fill:none;stroke:#36B7BE;stroke-width:2.8347;stroke-miterlimit:10;}
	.st7{opacity:0.5;}
	.st8{opacity:0.4;}
	.st9{opacity:0.15;fill:none;stroke:#231F20;stroke-miterlimit:10;}
	.st10{clip-path:url(#SVGID_00000023272103342187822280000016008431561921094275_);}
	.st11{clip-path:url(#SVGID_00000176022292393657020620000002762510039151984792_);}
</style>
<g>
	<polygon class="st2" points="140.7,66.8 117.9,74.9 136.2,90.6 112,89.9 123.6,111.2 101.1,102.1 104.8,126 86.7,109.9 82.2,133.7 
		70.3,112.6 58.5,133.7 54,109.9 35.9,126 39.5,102.1 17.1,111.2 28.6,89.9 4.5,90.6 22.8,74.9 0,66.8 22.8,58.8 4.5,43 28.6,43.8 
		17.1,22.5 39.5,31.6 35.9,7.7 54,23.8 58.5,0 70.3,21.1 82.2,0 86.7,23.8 104.8,7.7 101.1,31.6 123.6,22.5 112,43.8 136.2,43 
		117.9,58.8 	"/>
	<g>
		<path class="st4" d="M33.9,62.8h3.2V64c1-1.2,2.1-1.4,3-1.4c0.9,0,2,0.2,2.8,1c0.9,0.9,1,2.1,1,2.9v6.2h-3.2v-5c0-0.6,0-1.5-0.5-2
			c-0.2-0.2-0.6-0.4-1.2-0.4c-0.7,0-1.1,0.3-1.3,0.5c-0.5,0.5-0.6,1.2-0.6,1.9v5h-3.2V62.8z"/>
		<path class="st4" d="M56,71.4c-0.9,0.9-2.4,1.6-4.3,1.6c-1.9,0-3.4-0.7-4.3-1.6c-1-1-1.5-2.4-1.5-3.7s0.5-2.7,1.5-3.7
			c0.9-0.9,2.4-1.6,4.3-1.6c1.9,0,3.4,0.7,4.3,1.6c1,1,1.5,2.4,1.5,3.7S57,70.4,56,71.4z M49.9,65.9c-0.5,0.5-0.7,1.1-0.7,1.9
			c0,0.9,0.4,1.5,0.7,1.9c0.4,0.4,1,0.7,1.8,0.7c0.7,0,1.3-0.2,1.8-0.7c0.5-0.5,0.7-1.1,0.7-1.9c0-0.8-0.3-1.4-0.7-1.9
			s-1.1-0.7-1.8-0.7S50.4,65.4,49.9,65.9z"/>
		<path class="st4" d="M64.6,72.7h-2l-4.9-9.8h3.5l2.5,5.2l2.5-5.4h1.7l2.5,5.4l2.5-5.2h3.5l-4.9,9.8h-2l-2.5-5.6L64.6,72.7z"/>
		<path class="st4" d="M86.8,71.4c-0.9,0.9-2.4,1.6-4.3,1.6c-1.9,0-3.4-0.7-4.3-1.6c-1-1-1.5-2.4-1.5-3.7s0.5-2.7,1.5-3.7
			c0.9-0.9,2.4-1.6,4.3-1.6c1.9,0,3.4,0.7,4.3,1.6c1,1,1.5,2.4,1.5,3.7S87.8,70.4,86.8,71.4z M80.7,65.9c-0.5,0.5-0.7,1.1-0.7,1.9
			c0,0.9,0.4,1.5,0.7,1.9c0.4,0.4,1,0.7,1.8,0.7c0.7,0,1.3-0.2,1.8-0.7c0.5-0.5,0.7-1.1,0.7-1.9c0-0.8-0.3-1.4-0.7-1.9
			s-1.1-0.7-1.8-0.7S81.2,65.4,80.7,65.9z"/>
		<path class="st4" d="M96,65.3c-0.5-0.3-1.1-0.6-1.7-0.6c-0.3,0-0.7,0.1-0.9,0.3c-0.1,0.1-0.2,0.3-0.2,0.4c0,0.2,0.2,0.4,0.3,0.4
			c0.2,0.1,0.6,0.2,0.9,0.3l0.8,0.3c0.6,0.2,1.1,0.4,1.6,0.9c0.6,0.5,0.8,1.1,0.8,1.9c0,1.3-0.6,2.1-1,2.6c-1,1-2.2,1.1-3.2,1.1
			c-1.3,0-2.8-0.3-4-1.4l1.3-2.1c0.3,0.3,0.8,0.6,1.1,0.7c0.4,0.2,0.9,0.3,1.3,0.3c0.2,0,0.7,0,1-0.2c0.2-0.2,0.3-0.4,0.3-0.6
			c0-0.2-0.1-0.4-0.4-0.6c-0.2-0.1-0.5-0.2-1-0.4l-0.8-0.2c-0.6-0.2-1.2-0.5-1.6-0.9c-0.5-0.5-0.7-1-0.7-1.8c0-0.9,0.4-1.7,0.9-2.3
			c0.9-0.8,2.1-1,3-1c1.5,0,2.5,0.4,3.3,0.8L96,65.3z M97.2,58.3l-3.4,3l-1.4-1.1l2.7-3.4L97.2,58.3z"/>
		<path class="st4" d="M107.1,65.9c-0.8-0.6-1.6-0.7-2.1-0.7c-1,0-1.6,0.5-1.8,0.7c-0.4,0.4-0.7,1.1-0.7,1.9c0,0.7,0.3,1.3,0.7,1.8
			c0.5,0.5,1.2,0.8,1.9,0.8c0.6,0,1.3-0.2,2-0.8v2.9c-0.8,0.5-1.6,0.6-2.5,0.6c-1.7,0-2.9-0.6-3.8-1.5c-0.7-0.7-1.5-2-1.5-3.7
			c0-1.7,0.7-3,1.6-3.9c1.1-1,2.4-1.4,3.7-1.4c0.9,0,1.7,0.2,2.5,0.6V65.9z M107.9,58.3l-3.4,3l-1.4-1.1l2.7-3.4L107.9,58.3z"/>
	</g>
</g>
</svg>
