<?xml version="1.0" encoding="utf-8"?>
<!-- Generator: Adobe Illustrator 25.4.1, SVG Export Plug-In . SVG Version: 6.00 Build 0)  -->
<svg version="1.1" id="Layer_1" xmlns="http://www.w3.org/2000/svg" xmlns:xlink="http://www.w3.org/1999/xlink" x="0px" y="0px"
	 viewBox="0 0 115.3 109.6" style="enable-background:new 0 0 115.3 109.6;" xml:space="preserve">
<style type="text/css">
	.st0{fill:#231F20;}
	.st1{fill:#36B7BE;}
	.st2{fill:#FF314F;}
	.st3{fill:#DADA0A;}
	.st4{fill:#FFFFFF;}
	.st5{fill:none;stroke:#FFFFFF;stroke-width:1.4173;stroke-miterlimit:10;}
	.st6{fill:none;stroke:#36B7BE;stroke-width:2.8347;stroke-miterlimit:10;}
	.st7{opacity:0.5;}
	.st8{opacity:0.4;}
	.st9{opacity:0.15;fill:none;stroke:#231F20;stroke-miterlimit:10;}
	.st10{clip-path:url(#SVGID_00000144332961491710047010000003419601739926618285_);}
	.st11{clip-path:url(#SVGID_00000048464373791599721920000015996839567736962973_);}
</style>
<g>
	<polygon class="st3" points="115.3,54.8 96.6,61.4 111.7,74.3 91.9,73.7 101.3,91.1 82.9,83.7 85.9,103.3 71.1,90.1 67.4,109.6 
		57.7,92.3 47.9,109.6 44.3,90.1 29.4,103.3 32.4,83.7 14,91.1 23.5,73.7 3.7,74.3 18.7,61.4 0,54.8 18.7,48.2 3.7,35.3 23.5,35.9 
		14,18.5 32.4,25.9 29.4,6.3 44.3,19.5 47.9,0 57.7,17.3 67.4,0 71.1,19.5 85.9,6.3 82.9,25.9 101.3,18.5 91.9,35.9 111.7,35.3 
		96.6,48.2 	"/>
	<g>
		<path class="st0" d="M28.2,47.6v5.1c0.5-0.7,1.4-1,2.1-1c0.9,0,1.8,0.4,2.4,0.9c0.7,0.6,1.1,1.6,1.1,2.7c0,1.1-0.4,2-1.1,2.7
			c-0.6,0.6-1.3,0.9-2.3,0.9c-1.2,0-1.8-0.6-2.2-1.1v0.8H26V47.6H28.2z M28.6,54.1c-0.3,0.3-0.5,0.7-0.5,1.3c0,0.6,0.2,1,0.5,1.2
			c0.4,0.3,0.8,0.5,1.3,0.5c0.4,0,0.8-0.2,1.1-0.5c0.3-0.3,0.5-0.7,0.5-1.3c0-0.5-0.2-1-0.5-1.3c-0.4-0.3-0.7-0.5-1.2-0.5
			C29.3,53.6,28.9,53.8,28.6,54.1z"/>
		<path class="st0" d="M42.1,55.7h-5.1c0,0.4,0.1,0.9,0.4,1.2c0.3,0.4,0.8,0.4,1.1,0.4c0.3,0,0.7-0.1,0.9-0.2c0,0,0.3-0.2,0.5-0.6
			l2.1,0.2c-0.3,1-0.9,1.5-1.3,1.7c-0.7,0.4-1.4,0.5-2.2,0.5c-1,0-1.9-0.2-2.7-1c-0.6-0.6-1-1.5-1-2.6c0-1,0.4-2,1-2.7
			c0.8-0.8,1.8-1,2.6-1c0.8,0,1.9,0.1,2.7,1c0.8,0.9,1,1.9,1,2.8V55.7z M40.1,54.4c0-0.1-0.1-0.5-0.4-0.8c-0.2-0.2-0.6-0.4-1-0.4
			c-0.6,0-0.9,0.2-1.1,0.4c-0.2,0.2-0.3,0.4-0.4,0.7H40.1z"/>
		<path class="st0" d="M47.5,53.7c-0.3-0.2-0.8-0.4-1.2-0.4c-0.2,0-0.5,0.1-0.6,0.2c-0.1,0.1-0.1,0.2-0.1,0.3c0,0.2,0.1,0.2,0.2,0.3
			c0.2,0.1,0.4,0.1,0.7,0.2l0.6,0.2c0.4,0.1,0.8,0.3,1.1,0.6c0.4,0.4,0.5,0.8,0.5,1.3c0,0.9-0.4,1.5-0.7,1.8
			c-0.7,0.7-1.5,0.8-2.2,0.8c-0.9,0-1.9-0.2-2.8-1l0.9-1.5c0.2,0.2,0.5,0.4,0.7,0.5c0.3,0.2,0.6,0.2,0.9,0.2c0.1,0,0.5,0,0.7-0.2
			c0.1-0.1,0.2-0.3,0.2-0.4c0-0.1,0-0.3-0.2-0.4c-0.2-0.1-0.4-0.2-0.7-0.2L45,55.9c-0.4-0.1-0.8-0.3-1.1-0.6
			c-0.3-0.3-0.5-0.7-0.5-1.2c0-0.7,0.3-1.2,0.7-1.6c0.6-0.6,1.4-0.7,2.1-0.7c1,0,1.7,0.3,2.3,0.6L47.5,53.7z"/>
		<path class="st0" d="M52.4,53.7v5h-2.2v-5h-0.8V52h0.8v-2.2h2.2V52h1.4v1.8H52.4z"/>
		<path class="st0" d="M58.8,53.7c-0.3-0.2-0.8-0.4-1.2-0.4c-0.2,0-0.5,0.1-0.6,0.2c-0.1,0.1-0.1,0.2-0.1,0.3c0,0.2,0.1,0.2,0.2,0.3
			c0.2,0.1,0.4,0.1,0.7,0.2l0.6,0.2c0.4,0.1,0.8,0.3,1.1,0.6c0.4,0.4,0.5,0.8,0.5,1.3c0,0.9-0.4,1.5-0.7,1.8
			c-0.7,0.7-1.5,0.8-2.2,0.8c-0.9,0-1.9-0.2-2.8-1l0.9-1.5c0.2,0.2,0.5,0.4,0.7,0.5c0.3,0.2,0.6,0.2,0.9,0.2c0.1,0,0.5,0,0.7-0.2
			c0.1-0.1,0.2-0.3,0.2-0.4c0-0.1,0-0.3-0.2-0.4c-0.2-0.1-0.4-0.2-0.7-0.2l-0.5-0.2c-0.4-0.1-0.8-0.3-1.1-0.6
			c-0.3-0.3-0.5-0.7-0.5-1.2c0-0.7,0.3-1.2,0.7-1.6c0.6-0.6,1.4-0.7,2.1-0.7c1,0,1.7,0.3,2.3,0.6L58.8,53.7z"/>
		<path class="st0" d="M68.3,55.7h-5.1c0,0.4,0.1,0.9,0.4,1.2c0.3,0.4,0.8,0.4,1.1,0.4c0.3,0,0.7-0.1,0.9-0.2c0,0,0.3-0.2,0.5-0.6
			l2.1,0.2c-0.3,1-0.9,1.5-1.3,1.7c-0.7,0.4-1.4,0.5-2.2,0.5c-1,0-1.9-0.2-2.7-1c-0.6-0.6-1-1.5-1-2.6c0-1,0.4-2,1-2.7
			c0.8-0.8,1.8-1,2.6-1c0.8,0,1.9,0.1,2.7,1c0.8,0.9,1,1.9,1,2.8V55.7z M66.2,54.4c0-0.1-0.1-0.5-0.4-0.8c-0.2-0.2-0.6-0.4-1-0.4
			c-0.6,0-0.9,0.2-1.1,0.4c-0.2,0.2-0.3,0.4-0.4,0.7H66.2z"/>
		<path class="st0" d="M71.9,47.6v11.1h-2.2V47.6H71.9z"/>
		<path class="st0" d="M75.9,47.6v11.1h-2.2V47.6H75.9z"/>
		<path class="st0" d="M84.7,55.7h-5.1c0,0.4,0.1,0.9,0.4,1.2c0.3,0.4,0.8,0.4,1.1,0.4c0.3,0,0.7-0.1,0.9-0.2c0,0,0.3-0.2,0.5-0.6
			l2.1,0.2c-0.3,1-0.9,1.5-1.3,1.7c-0.7,0.4-1.4,0.5-2.2,0.5c-1,0-1.9-0.2-2.7-1c-0.6-0.6-1-1.5-1-2.6c0-1,0.4-2,1-2.7
			c0.8-0.8,1.8-1,2.6-1c0.8,0,1.9,0.1,2.7,1c0.8,0.9,1,1.9,1,2.8V55.7z M82.7,54.4c0-0.1-0.1-0.5-0.4-0.8c-0.2-0.2-0.6-0.4-1-0.4
			c-0.6,0-0.9,0.2-1.1,0.4c-0.2,0.2-0.3,0.4-0.4,0.7H82.7z"/>
		<path class="st0" d="M86.1,52h2.2V53c0.2-0.4,0.5-0.7,0.9-0.9c0.4-0.2,0.7-0.3,1.2-0.3c0.3,0,0.5,0,0.7,0.1L90.9,54
			c-0.3-0.2-0.6-0.2-1-0.2c-0.5,0-0.8,0.2-1.1,0.5c-0.5,0.5-0.5,1.3-0.5,1.8v2.8h-2.2V52z"/>
	</g>
</g>
</svg>
