<?xml version="1.0" encoding="utf-8"?>
<!-- Generator: Adobe Illustrator 25.4.1, SVG Export Plug-In . SVG Version: 6.00 Build 0)  -->
<svg version="1.1" id="Layer_1" xmlns="http://www.w3.org/2000/svg" xmlns:xlink="http://www.w3.org/1999/xlink" x="0px" y="0px"
	 viewBox="0 0 42.3 42.3" style="enable-background:new 0 0 42.3 42.3;" xml:space="preserve">
<style type="text/css">
	.st0{fill:#231F20;}
	.st1{fill:#36B7BE;}
	.st2{fill:#FF314F;}
	.st3{fill:#DADA0A;}
	.st4{fill:#FFFFFF;}
	.st5{fill:none;stroke:#FFFFFF;stroke-width:1.4173;stroke-miterlimit:10;}
	.st6{fill:none;stroke:#36B7BE;stroke-width:2.8347;stroke-miterlimit:10;}
	.st7{opacity:0.5;}
	.st8{opacity:0.4;}
	.st9{opacity:0.15;fill:none;stroke:#231F20;stroke-miterlimit:10;}
	.st10{clip-path:url(#SVGID_00000026846581773880160920000016095600544384512444_);}
	.st11{clip-path:url(#SVGID_00000105400966256670010360000007607050749878632632_);}
</style>
<g>
	<ellipse transform="matrix(0.1602 -0.9871 0.9871 0.1602 -3.1118 38.6027)" cx="21.1" cy="21.1" rx="21.1" ry="21.1"/>
	<g id="XMLID_00000045616660423638441450000015709868717279358086_">
		<path id="XMLID_00000036228950642500675090000016069942018517086624_" class="st4" d="M21.1,13c2.7,0,3,0,4,0.1
			c1,0,1.5,0.2,1.8,0.3c0.5,0.2,0.8,0.4,1.1,0.7c0.3,0.3,0.6,0.7,0.7,1.1c0.1,0.4,0.3,0.9,0.3,1.8c0,1,0.1,1.4,0.1,4
			c0,2.7,0,3-0.1,4c0,1-0.2,1.5-0.3,1.8c-0.2,0.5-0.4,0.8-0.7,1.1c-0.3,0.3-0.7,0.6-1.1,0.7c-0.4,0.1-0.9,0.3-1.8,0.3
			c-1,0-1.4,0.1-4,0.1s-3,0-4-0.1c-1,0-1.5-0.2-1.8-0.3c-0.5-0.2-0.8-0.4-1.1-0.7c-0.3-0.3-0.6-0.7-0.7-1.1
			c-0.1-0.4-0.3-0.9-0.3-1.8c0-1-0.1-1.4-0.1-4c0-2.7,0-3,0.1-4c0-1,0.2-1.5,0.3-1.8c0.2-0.5,0.4-0.8,0.7-1.1
			c0.3-0.3,0.7-0.6,1.1-0.7c0.4-0.1,0.9-0.3,1.8-0.3C18.2,13,18.5,13,21.1,13 M21.1,11.2c-2.7,0-3,0-4.1,0.1c-1.1,0-1.8,0.2-2.4,0.5
			c-0.7,0.3-1.2,0.6-1.8,1.1c-0.6,0.6-0.9,1.1-1.1,1.8c-0.2,0.6-0.4,1.4-0.5,2.4c0,1.1-0.1,1.4-0.1,4.1c0,2.7,0,3,0.1,4.1
			c0,1.1,0.2,1.8,0.5,2.4c0.3,0.7,0.6,1.2,1.1,1.8c0.6,0.6,1.1,0.9,1.8,1.1C15.2,30.8,16,31,17,31c1.1,0,1.4,0.1,4.1,0.1
			s3,0,4.1-0.1c1.1,0,1.8-0.2,2.4-0.5c0.7-0.3,1.2-0.6,1.8-1.1c0.6-0.6,0.9-1.1,1.1-1.8c0.2-0.6,0.4-1.4,0.5-2.4
			c0-1.1,0.1-1.4,0.1-4.1c0-2.7,0-3-0.1-4.1c0-1.1-0.2-1.8-0.5-2.4c-0.3-0.7-0.6-1.2-1.1-1.8c-0.6-0.6-1.1-0.9-1.8-1.1
			c-0.6-0.2-1.4-0.4-2.4-0.5C24.2,11.2,23.8,11.2,21.1,11.2"/>
		<path id="XMLID_00000039126639947469216390000007376309779219541674_" class="st4" d="M21.1,16c-2.8,0-5.1,2.3-5.1,5.1
			c0,2.8,2.3,5.1,5.1,5.1c2.8,0,5.1-2.3,5.1-5.1C26.2,18.3,24,16,21.1,16 M21.1,24.4c-1.8,0-3.3-1.5-3.3-3.3c0-1.8,1.5-3.3,3.3-3.3
			s3.3,1.5,3.3,3.3C24.4,23,23,24.4,21.1,24.4"/>
		<path id="XMLID_00000106113019709170072860000016922048476242741376_" class="st4" d="M27.6,15.8c0,0.7-0.5,1.2-1.2,1.2
			c-0.7,0-1.2-0.5-1.2-1.2c0-0.7,0.5-1.2,1.2-1.2C27.1,14.6,27.6,15.2,27.6,15.8"/>
	</g>
</g>
</svg>
