<?xml version="1.0" encoding="utf-8"?>
<!-- Generator: Adobe Illustrator 25.4.1, SVG Export Plug-In . SVG Version: 6.00 Build 0)  -->
<svg version="1.1" id="Layer_1" xmlns="http://www.w3.org/2000/svg" xmlns:xlink="http://www.w3.org/1999/xlink" x="0px" y="0px"
	 viewBox="0 0 95.4 19.9" style="enable-background:new 0 0 95.4 19.9;" xml:space="preserve">
<style type="text/css">
	.st0{fill:#231F20;}
	.st1{fill:#36B7BE;}
	.st2{fill:#FF314F;}
	.st3{fill:#DADA0A;}
	.st4{fill:#FFFFFF;}
	.st5{fill:none;stroke:#FFFFFF;stroke-width:1.4173;stroke-miterlimit:10;}
	.st6{fill:none;stroke:#36B7BE;stroke-width:2.8347;stroke-miterlimit:10;}
	.st7{opacity:0.5;}
	.st8{opacity:0.4;}
	.st9{opacity:0.15;fill:none;stroke:#231F20;stroke-miterlimit:10;}
	.st10{clip-path:url(#SVGID_00000148621940264979379120000017294812901088940200_);}
	.st11{clip-path:url(#SVGID_00000176750322463235229160000014397217447867077772_);}
</style>
<g>
	<g>
		<path class="st4" d="M20.9,9.2c-2.3-2.6-5.7-1.9-6-1.8c-0.9,0.2-2.2,0.6-3.1,1.5c-1.3,1.2-2.4,3.6-1.7,6.6
			c0.1,0.5,0.3,0.9,0.5,1.4l0,0l0,0c-1.1,0.6-2.2,0.8-3,0.6c-1.1-0.2-1.9-1.2-2.4-3c-0.1-0.4-0.2-0.8-0.3-1.2v0l0,0
			C6.7,11.2,8,9.4,8.5,8.2c0.2-0.4,0.3-0.8,0.4-1.3h1.4c0.6,0,1.1-0.5,1.1-1.1c0-0.3-0.1-0.6-0.3-0.8c-0.2-0.2-0.5-0.3-0.8-0.3h-1
			c0-1.4-0.3-2.8-0.8-3.6C7.9,0.4,7.2,0,6.4,0C5.7,0,4.8,0.3,4,1.5C3.4,2.2,3,3.4,2.6,4.7H1.1C0.5,4.7,0,5.1,0,5.8
			c0,0.6,0.5,1.1,1.1,1.1h1.1C2,8.7,2.1,10.7,2.4,12.6l0,0l0,0c-0.7,0.7-1.4,1.4-1.9,1.9c-0.5,0.4-0.5,1.1-0.1,1.6
			c0.4,0.5,1.1,0.5,1.6,0.1c0.3-0.3,0.6-0.6,1-0.9L3,15.2l0,0.1c0.9,3.1,2.7,4.1,4.1,4.4c1.9,0.4,3.7-0.3,5-1l0,0l0,0
			c0.7,0.5,1.5,0.8,2.4,1c0.4,0.1,0.9,0.1,1.3,0.1c2,0,3.9-0.9,5-2.4C22.6,14.8,22.8,11.3,20.9,9.2z M5,4.7c0.2-0.8,0.5-1.4,0.8-1.9
			c0.3-0.4,0.6-0.6,0.6-0.6l0,0l0,0C6.7,2.4,7.1,3.5,7,4.7v0L5,4.7L5,4.7z M4.4,10.3L4.4,10.3L4.4,10.3C4.3,9.1,4.3,8,4.5,6.9l0,0
			h2.2l0,0.1C6.5,7.1,6.5,7.2,6.5,7.3C6.1,8.1,5.5,9.1,4.4,10.3z M12.5,15.7L12.5,15.7L12.5,15.7c-0.2-0.2-0.2-0.4-0.3-0.6
			c-0.5-2.2,0.3-3.8,1.1-4.7c0.4-0.4,0.9-0.7,1.3-0.6l0,0c0.2,0,0.3,0.2,0.4,0.5c0.3,0.9,0,2.8-1.3,4.3C13.4,14.9,13,15.3,12.5,15.7
			z M18.9,16.1c-0.3,0.5-0.8,0.8-1.3,1.1c-0.5,0.3-1.2,0.4-1.8,0.4c-0.3,0-0.6,0-0.9-0.1c-0.3-0.1-0.5-0.1-0.8-0.2l-0.1,0l0.1-0.1
			c0.5-0.4,0.9-0.8,1.3-1.3c1.7-2,2.4-4.6,1.7-6.5v0l0-0.1l0.1,0c0.8,0.1,1.4,0.5,1.9,1.1C20.1,11.8,20.3,14.1,18.9,16.1z"/>
	</g>
	<g>
		<path class="st4" d="M37,16c0,0.6,0.2,0.7,0.9,0.8h0.6v2.7h-2.6c-1.6-0.1-2.2-0.7-2.2-2.3v-7h-1.4V7.5h1.4V4.3H37v3.2h1.5v2.8H37
			V16z"/>
		<path class="st4" d="M49.8,7.5h3.3v12h-3.3v-1.7c-1.1,1.4-2.4,2.1-4.2,2.1c-3.4,0-5.8-2.6-5.8-6.2c0-3.8,2.5-6.5,6-6.5
			c1.6,0,2.7,0.6,3.9,1.9V7.5z M43.4,13.6c0,2.1,1.4,3.7,3.1,3.7c1.8,0,3.3-1.7,3.3-3.8c0-2.1-1.3-3.6-3.3-3.6
			C44.7,9.9,43.4,11.4,43.4,13.6z"/>
		<path class="st4" d="M59.2,7.5V9C60,7.7,61,7.1,62.5,7.1c1.5,0,2.7,0.7,3.3,2c0.8-1.4,1.9-2,3.6-2c1.2,0,2.2,0.4,2.9,1.1
			c0.7,0.8,1,1.6,1,3.4v7.8h-3.3v-7.2c0-1.6-0.6-2.4-1.8-2.4c-1.2,0-1.9,0.9-1.9,2.4v7.2h-3.3v-7.1c0-1.7-0.6-2.5-1.8-2.5
			c-1.2,0-1.9,0.9-1.9,2.5v7.1h-3.3v-12H59.2z"/>
		<path class="st4" d="M79.6,16c0,0.6,0.2,0.7,0.9,0.8h0.6v2.7h-2.6c-1.6-0.1-2.2-0.7-2.2-2.3v-7H75V7.5h1.4V4.3h3.3v3.2h1.5v2.8
			h-1.5V16z"/>
		<path class="st4" d="M95.4,13.6c0,3.5-2.9,6.3-6.5,6.3c-3.8,0-6.5-2.7-6.5-6.4c0-3.8,2.7-6.4,6.5-6.4C92.7,7.1,95.4,9.9,95.4,13.6
			z M85.7,13.5c0,2.1,1.3,3.5,3.2,3.5c1.9,0,3.2-1.4,3.2-3.4c0-2.2-1.2-3.5-3.2-3.5C87,10.1,85.7,11.4,85.7,13.5z"/>
	</g>
	<path class="st4" d="M25.5,12.7c0-1.3,0.8-2.2,2.1-2.2c1.1,0,2.1,1,2.1,2.3c0,1.2-0.9,2.1-2,2.1C26.4,14.9,25.6,14,25.5,12.7z"/>
</g>
</svg>
