<?xml version="1.0" encoding="utf-8"?>
<!-- Generator: Adobe Illustrator 25.4.1, SVG Export Plug-In . SVG Version: 6.00 Build 0)  -->
<svg version="1.1" id="Layer_1" xmlns="http://www.w3.org/2000/svg" xmlns:xlink="http://www.w3.org/1999/xlink" x="0px" y="0px"
	 viewBox="0 0 205.8 208.5" style="enable-background:new 0 0 205.8 208.5;" xml:space="preserve">
<style type="text/css">
	.st0{fill:#231F20;}
	.st1{fill:#36B7BE;}
	.st2{fill:#FF314F;}
	.st3{fill:#DADA0A;}
	.st4{fill:#FFFFFF;}
	.st5{fill:none;stroke:#FFFFFF;stroke-width:1.4173;stroke-miterlimit:10;}
	.st6{fill:none;stroke:#36B7BE;stroke-width:2.8347;stroke-miterlimit:10;}
	.st7{opacity:0.5;}
	.st8{opacity:0.4;}
	.st9{opacity:0.15;fill:none;stroke:#231F20;stroke-miterlimit:10;}
	.st10{clip-path:url(#SVGID_00000000201596658803870990000016642686110794605998_);}
	.st11{clip-path:url(#SVGID_00000037664065435570376650000014200472973092750747_);}
</style>
<g>
	<circle class="st0" cx="89.7" cy="118.8" r="89.7"/>
	
		<ellipse transform="matrix(0.7071 -0.7071 0.7071 0.7071 -29.4372 108.3489)" class="st2" cx="116.1" cy="89.7" rx="89.7" ry="89.7"/>
	<g>
		<path class="st4" d="M77.8,60.4h6v3.4H70.9l6.6-9.3h-5.6v-3.4h12.5L77.8,60.4z"/>
		<path class="st4" d="M98.3,62.2c-1.1,1.1-3.1,2-5.5,2c-2.5,0-4.4-0.9-5.5-2c-1.3-1.3-1.9-3.1-1.9-4.7c0-1.6,0.6-3.4,1.9-4.7
			c1.1-1.1,3.1-2,5.5-2c2.5,0,4.4,0.9,5.5,2c1.3,1.3,1.9,3.1,1.9,4.7C100.3,59.1,99.6,60.9,98.3,62.2z M90.5,55.1
			c-0.6,0.6-0.9,1.4-0.9,2.4c0,1.2,0.5,1.9,0.9,2.4c0.5,0.5,1.2,0.9,2.3,0.9c0.9,0,1.7-0.3,2.3-0.9c0.6-0.6,0.9-1.4,0.9-2.4
			c0-1-0.3-1.8-0.9-2.4c-0.6-0.6-1.4-0.9-2.3-0.9C91.9,54.1,91.1,54.5,90.5,55.1z"/>
		<path class="st4" d="M106.9,43.1v9.5c1-1.4,2.6-1.8,3.9-1.8c1.7,0,3.3,0.7,4.4,1.7c1.2,1.2,2,2.9,2,5c0,2-0.7,3.8-2,5.1
			c-1.1,1.1-2.5,1.7-4.3,1.7c-2.2,0-3.4-1.1-4-2v1.5h-4.1V43.1H106.9z M107.6,55.1c-0.5,0.5-0.9,1.2-0.9,2.3c0,1.1,0.5,1.8,0.9,2.3
			c0.7,0.6,1.6,0.9,2.3,0.9c0.7,0,1.5-0.3,2.1-0.9c0.6-0.6,1-1.4,1-2.3c0-1-0.4-1.8-1-2.4c-0.7-0.6-1.4-0.9-2.2-0.9
			C109,54.2,108.2,54.5,107.6,55.1z"/>
		<path class="st4" d="M129.5,51.1h4.1v12.7h-4.1v-1.5c-1.1,1.7-2.7,2-3.7,2c-1.8,0-3.4-0.5-4.7-1.9c-1.3-1.4-1.8-3.1-1.8-4.7
			c0-2.1,0.8-3.9,2-5.1c1.1-1.1,2.6-1.7,4.4-1.7c1.1,0,2.8,0.3,4,1.8V51.1z M124.3,55.1c-0.4,0.4-0.9,1.2-0.9,2.3
			c0,1.1,0.5,1.9,0.9,2.3c0.6,0.6,1.4,1,2.4,1c0.8,0,1.6-0.3,2.1-0.9c0.5-0.5,1-1.3,1-2.4c0-0.9-0.3-1.8-0.9-2.3
			c-0.6-0.6-1.5-0.9-2.3-0.9C125.6,54.2,124.8,54.6,124.3,55.1z"/>
		<path class="st4" d="M146.2,55.1c-1-0.8-2-1-2.7-1c-1.3,0-2,0.6-2.3,0.9c-0.5,0.5-0.9,1.4-0.9,2.4c0,0.9,0.3,1.7,0.9,2.3
			c0.6,0.7,1.6,1,2.5,1c0.7,0,1.7-0.2,2.6-1v3.7c-1.1,0.6-2.1,0.8-3.2,0.8c-2.1,0-3.7-0.8-4.9-1.9c-1-0.9-2-2.5-2-4.8
			c0-2.2,0.9-3.9,2.1-5c1.4-1.3,3.1-1.8,4.8-1.8c1.1,0,2.1,0.2,3.2,0.7V55.1z"/>
		<path class="st4" d="M154.7,60.4h6v3.4h-12.9l6.6-9.3h-5.6v-3.4h12.5L154.7,60.4z"/>
		<path class="st4" d="M61.7,97.9h-2.6l-6.3-12.7h4.5l3.3,6.7l3.2-6.9H66l3.2,6.9l3.3-6.7h4.5l-6.3,12.7h-2.6l-3.2-7.2L61.7,97.9z"
			/>
		<path class="st4" d="M85.8,88.4c-0.6-0.4-1.4-0.7-2.2-0.7c-0.4,0-0.9,0.1-1.2,0.4c-0.1,0.1-0.3,0.4-0.3,0.6c0,0.3,0.2,0.5,0.4,0.6
			c0.3,0.2,0.7,0.3,1.2,0.4l1.1,0.3c0.7,0.2,1.4,0.5,2.1,1.1c0.7,0.7,1,1.4,1,2.4c0,1.7-0.7,2.8-1.3,3.3c-1.2,1.2-2.8,1.4-4.1,1.4
			c-1.7,0-3.5-0.4-5.2-1.8l1.7-2.8c0.4,0.3,1,0.7,1.4,0.9c0.6,0.3,1.2,0.4,1.7,0.4c0.3,0,0.9,0,1.3-0.3c0.3-0.2,0.4-0.5,0.4-0.8
			c0-0.2-0.1-0.5-0.5-0.7c-0.3-0.2-0.7-0.3-1.2-0.5l-1-0.3c-0.7-0.2-1.5-0.6-2-1.2c-0.6-0.6-0.9-1.3-0.9-2.3c0-1.2,0.5-2.2,1.2-2.9
			c1.1-1.1,2.7-1.3,3.8-1.3c1.9,0,3.2,0.5,4.2,1.1L85.8,88.4z"/>
		<path class="st4" d="M95.7,94.4h6v3.4H88.8l6.6-9.3h-5.6v-3.4h12.5L95.7,94.4z"/>
		<path class="st4" d="M109.4,96.2l-6-11h4.7l3.6,6.9l3.5-6.9h4.6l-10.2,19.2h-4.6L109.4,96.2z"/>
		<path class="st4" d="M128.5,88.4c-0.6-0.4-1.4-0.7-2.2-0.7c-0.4,0-0.9,0.1-1.2,0.4c-0.1,0.1-0.3,0.4-0.3,0.6
			c0,0.3,0.2,0.5,0.4,0.6c0.3,0.2,0.7,0.3,1.2,0.4l1.1,0.3c0.7,0.2,1.4,0.5,2.1,1.1c0.7,0.7,1,1.4,1,2.4c0,1.7-0.7,2.8-1.3,3.3
			c-1.2,1.2-2.8,1.4-4.1,1.4c-1.7,0-3.5-0.4-5.2-1.8l1.7-2.8c0.4,0.3,1,0.7,1.4,0.9c0.6,0.3,1.2,0.4,1.7,0.4c0.3,0,0.9,0,1.3-0.3
			c0.3-0.2,0.4-0.5,0.4-0.8c0-0.2-0.1-0.5-0.5-0.7c-0.3-0.2-0.7-0.3-1.2-0.5l-1-0.3c-0.7-0.2-1.5-0.6-2-1.2
			c-0.6-0.6-0.9-1.3-0.9-2.3c0-1.2,0.5-2.2,1.2-2.9c1.1-1.1,2.7-1.3,3.8-1.3c1.9,0,3.2,0.5,4.2,1.1L128.5,88.4z"/>
		<path class="st4" d="M137.4,88.5v9.4h-4.1v-9.4h-1.4v-3.3h1.4v-4.1h4.1v4.1h2.5v3.3H137.4z"/>
		<path class="st4" d="M146,77.2v12.7l4.6-4.7h5.4l-6,5.7l6.4,6.9h-5.5l-4.9-5.5v5.5h-4.1V77.2H146z"/>
		<path class="st4" d="M160.2,77.4c1.3,0,2.4,1.1,2.4,2.4c0,1.3-1.1,2.4-2.4,2.4s-2.4-1.1-2.4-2.4C157.8,78.5,158.8,77.4,160.2,77.4
			z M162.2,85.2v12.7h-4.1V85.2H162.2z"/>
		<path class="st4" d="M178.4,92.2h-9.5c0,0.7,0.3,1.6,0.8,2.2c0.6,0.7,1.5,0.8,2.1,0.8c0.6,0,1.2-0.1,1.6-0.4
			c0.1,0,0.5-0.3,0.9-1.1l3.9,0.4c-0.6,1.8-1.7,2.7-2.4,3.2c-1.2,0.7-2.6,0.9-4,0.9c-1.9,0-3.6-0.3-5.1-1.8
			c-1.1-1.1-1.9-2.8-1.9-4.9c0-1.8,0.7-3.7,1.9-5c1.5-1.5,3.4-1.8,4.9-1.8c1.4,0,3.5,0.3,5,1.9c1.5,1.6,1.8,3.6,1.8,5.1V92.2z
			 M174.6,89.8c0-0.1-0.2-0.9-0.8-1.5c-0.5-0.4-1.1-0.7-1.9-0.7c-1.1,0-1.7,0.4-2.1,0.8c-0.3,0.3-0.6,0.8-0.7,1.4H174.6z"/>
		<path class="st4" d="M76.3,111.2v12.7l4.6-4.7h5.4l-6,5.7l6.4,6.9h-5.5l-4.9-5.5v5.5h-4.1v-20.7H76.3z"/>
		<path class="st4" d="M96,122.5c-0.6-0.4-1.4-0.7-2.2-0.7c-0.4,0-0.9,0.1-1.2,0.4c-0.1,0.1-0.3,0.4-0.3,0.6c0,0.3,0.2,0.5,0.4,0.6
			c0.3,0.2,0.7,0.3,1.2,0.4l1.1,0.3c0.7,0.2,1.4,0.5,2.1,1.1c0.7,0.7,1,1.4,1,2.4c0,1.7-0.7,2.8-1.3,3.3c-1.2,1.2-2.8,1.4-4.1,1.4
			c-1.7,0-3.5-0.4-5.2-1.8l1.7-2.8c0.4,0.3,1,0.7,1.4,0.9c0.6,0.3,1.2,0.4,1.7,0.4c0.3,0,0.9,0,1.3-0.3c0.3-0.2,0.4-0.5,0.4-0.8
			c0-0.2-0.1-0.5-0.5-0.7c-0.3-0.2-0.7-0.3-1.2-0.5l-1-0.3c-0.7-0.2-1.5-0.6-2-1.2c-0.6-0.6-0.9-1.3-0.9-2.3c0-1.2,0.5-2.2,1.2-2.9
			c1.1-1,2.7-1.3,3.8-1.3c1.9,0,3.2,0.5,4.2,1.1L96,122.5z"/>
		<path class="st4" d="M102.7,111.5c1.3,0,2.4,1.1,2.4,2.4c0,1.3-1.1,2.4-2.4,2.4s-2.4-1.1-2.4-2.4
			C100.4,112.5,101.4,111.5,102.7,111.5z M104.8,119.3v12.7h-4.1v-12.7H104.8z"/>
		<path class="st4" d="M117.8,119.3h4.1v12.7h-1.1c-0.2,0.2-0.6,0.6-0.8,0.8c-0.3,0.4-0.5,0.9-0.5,1.2c0,0.3,0.1,0.6,0.3,0.8
			c0.2,0.2,0.5,0.3,0.8,0.3c0.4,0,1-0.2,1.4-0.4l-0.5,2.2c-0.7,0.4-1.3,0.5-1.9,0.5c-0.6,0-1.3-0.1-1.9-0.7c-0.4-0.4-0.7-1-0.7-1.6
			c0-0.5,0.2-1.1,0.6-1.7c0.3-0.4,0.8-1,1.2-1.4h-1.1v-1.6c-1.1,1.9-3,2.1-3.9,2.1c-1.9,0-3.3-0.6-4.5-1.9c-1.3-1.4-1.8-3.1-1.8-4.7
			c0-2.1,0.8-3.9,2-5.1c1.1-1.1,2.6-1.7,4.4-1.7c1.1,0,2.8,0.3,4,1.8V119.3z M112.6,123.3c-0.4,0.4-0.9,1.2-0.9,2.3
			c0,1.1,0.5,1.9,0.9,2.3c0.6,0.6,1.4,1,2.4,1c0.8,0,1.6-0.3,2.1-0.9c0.5-0.5,1-1.3,1-2.4c0-0.9-0.3-1.8-0.9-2.3
			c-0.6-0.6-1.5-0.9-2.3-0.9C114,122.4,113.1,122.7,112.6,123.3z"/>
		<path class="st4" d="M130.8,128.5h6v3.4h-12.9l6.6-9.3h-5.6v-3.4h12.5L130.8,128.5z M130.4,112.4c1.3,0,2.4,1,2.4,2.4
			s-1,2.4-2.4,2.4s-2.4-1-2.4-2.4S129.1,112.4,130.4,112.4z"/>
		<path class="st4" d="M143.5,111.2v12.7l4.6-4.7h5.4l-6,5.7l6.4,6.9h-5.5l-4.9-5.5v5.5h-4.1v-20.7H143.5z"/>
		<path class="st4" d="M157.7,111.5c1.3,0,2.4,1.1,2.4,2.4c0,1.3-1.1,2.4-2.4,2.4s-2.4-1.1-2.4-2.4
			C155.3,112.5,156.4,111.5,157.7,111.5z M159.8,119.3v12.7h-4.1v-12.7H159.8z"/>
	</g>
</g>
</svg>
